<svg width="160" height="21" viewBox="0 0 160 21" fill="none" xmlns="http://www.w3.org/2000/svg">
<path d="M45.7235 18.9703V4.66453V1H43.9878V4.4766V12.7688L35.3094 1H32V5.55717V14.3191V18.5474H33.5968V14.3191V4.40613L44.4969 18.9703H45.7235Z" fill="white"/>
<path d="M57.9125 11.1479H53.7237L55.7834 5.95651L57.9125 11.1479ZM64.8089 18.9703L57.2645 1H56.1074L48.7944 18.9703H50.7846L53.1451 12.7453H58.5373L59.6713 15.5407C59.6713 15.5407 60.0647 16.4333 61.0599 18.9703H64.8089Z" fill="white"/>
<path d="M80.904 15.2588C80.8577 15.1413 80.6725 15.0708 79.8625 15.2118L80.7651 14.8359C80.6262 14.695 80.418 14.5541 80.2791 14.4131L74.4472 8.37603L76.8077 6.2149L77.178 5.79207C77.5714 5.43972 77.8723 5.11085 78.1731 4.82896L82.2231 1H79.8857L75.4423 5.06387C75.3729 5.13434 75.3266 5.18132 75.3035 5.25179L71.323 8.9633V5.76858V1H67.8748V5.76858V14.0842V18.9703H71.323V14.0842V11.2184L71.9015 10.6546L76.3218 15.1178C76.6457 15.4702 76.9235 15.7756 78.0806 15.6346L77.2012 15.987L79.932 18.9703H84.6993L80.7651 14.9534C80.7651 15.0474 80.8114 15.1413 80.904 15.2353V15.2588Z" fill="white"/>
<path d="M93.648 17.9602C94.7589 17.091 95.4069 15.893 95.5688 14.3896C95.6614 13.4265 95.5457 12.5574 95.1986 11.7352C94.8746 10.96 94.3654 10.3023 93.7175 9.80896C93.1158 9.36264 92.1669 8.75188 90.8478 7.9532C89.5055 7.15453 88.6261 6.49679 88.2096 5.98C87.793 5.51019 87.631 4.99339 87.7004 4.40613C87.7467 3.93632 87.955 3.49 88.3715 3.11415C88.7187 2.78528 89.2741 2.59736 90.1304 2.69132C90.9866 2.78528 91.7041 3.16113 92.2826 3.86585C92.4446 4.03028 92.5603 4.21821 93 4.92292L94.3423 3.79538C93.486 2.59736 92.8612 1.9866 92.1901 1.65774C91.5652 1.35236 90.8709 1.14094 90.1535 1.07047C88.8344 0.929528 87.6541 1.23491 86.6821 1.9866C85.687 2.76179 85.1316 3.81887 84.9928 5.11085C84.9002 5.93302 85.0159 6.75519 85.363 7.55387C85.687 8.32905 86.173 9.01028 86.8442 9.55056C87.4921 10.0674 88.4178 10.6546 89.6444 11.3593C91.0098 12.1345 91.8429 12.7688 92.2595 13.2856C92.6529 13.7789 92.8149 14.3426 92.7455 15.0239C92.676 15.6816 92.3752 16.2454 91.7735 16.7387C91.2181 17.2085 90.4544 17.4434 89.4824 17.3024C88.0013 17.0675 87.1681 16.4568 85.6176 14.1782L84.4605 15.4467C85.6639 17.4434 87.793 18.7589 89.5055 18.9468C91.1255 19.1347 92.514 18.8293 93.648 17.9602Z" fill="white"/>
<path d="M114 18.9703V1H110.575V8.72839H102.706V1H99.2814V18.9703H102.706V10.3492H110.575V18.9703H114Z" fill="white"/>
<path d="M121.367 19.9999L122.456 16.9324H126.731L127.82 19.9999H128.795L125.091 9.81809H124.096L120.393 19.9999H121.367ZM122.754 16.0972L124.559 11.0262H124.628L126.433 16.0972H122.754Z" fill="white"/>
<path d="M133.105 20.159C134.492 20.159 135.138 19.279 135.452 18.583H135.556V19.9999H136.421V9.81809H135.531V13.8202H135.452C135.148 13.1341 134.517 12.2591 133.12 12.2591C131.236 12.2591 129.963 13.8501 129.963 16.2016C129.963 18.5731 131.231 20.159 133.105 20.159ZM133.209 19.3486C131.688 19.3486 130.853 17.9665 130.853 16.1867C130.853 14.4268 131.678 13.0645 133.209 13.0645C134.701 13.0645 135.546 14.3572 135.546 16.1867C135.546 18.0312 134.691 19.3486 133.209 19.3486Z" fill="white"/>
<path d="M138.942 19.9999H139.827V15.1079C139.827 13.9197 140.617 13.0745 141.676 13.0745C142.72 13.0745 143.327 13.7705 143.327 14.8046V19.9999H144.231V14.9736C144.231 13.8749 144.888 13.0745 146.051 13.0745C147.06 13.0745 147.731 13.681 147.731 14.8841V19.9999H148.616V14.8841C148.616 13.1739 147.736 12.2641 146.319 12.2641C145.206 12.2641 144.4 12.806 144.057 13.6512H143.993C143.655 12.7861 142.983 12.2641 141.93 12.2641C140.93 12.2641 140.184 12.7464 139.881 13.5368H139.802V12.3635H138.942V19.9999Z" fill="white"/>
<path d="M150.969 19.9999H151.859V12.3635H150.969V19.9999ZM151.422 11.051C151.784 11.051 152.088 10.7627 152.088 10.4147C152.088 10.0667 151.784 9.77832 151.422 9.77832C151.059 9.77832 150.76 10.0667 150.76 10.4147C150.76 10.7627 151.059 11.051 151.422 11.051Z" fill="white"/>
<path d="M155.084 15.2272C155.084 13.8948 155.959 13.0745 157.162 13.0745C158.336 13.0745 159.091 13.86 159.091 15.1079V19.9999H159.976V15.0532C159.976 13.2435 158.927 12.2641 157.386 12.2641C156.268 12.2641 155.497 12.7812 155.139 13.5617H155.059V12.3635H154.199V19.9999H155.084V15.2272Z" fill="white"/>
<path d="M19.7907 0V9.93485C19.7907 11.1401 18.2863 11.5961 17.718 10.5537L12.3692 1.07492C12.0683 0.521173 11.3663 0.456026 10.9651 0.879479L0 12.5407V20H3.17587V10.0977C3.17587 8.89251 4.6468 8.43648 5.24855 9.47883L10.798 18.9577C11.0988 19.4788 11.8009 19.5765 12.202 19.1205L23 7.65472V0H19.7907Z" fill="white"/>
</svg>
