<svg width="612" height="159" viewBox="0 0 612 159" fill="none" xmlns="http://www.w3.org/2000/svg">
<g clip-path="url(#clip0_5_8887)">
<path d="M117.048 34V79.2036C117.048 84.6873 110.203 86.7622 107.617 82.0195L83.2798 38.8909C81.9108 36.3713 78.7166 36.0749 76.8913 38.0016L27 91.0603V125H41.4502V79.9446C41.4502 74.4609 48.1429 72.386 50.8809 77.1287L76.1307 120.257C77.4997 122.629 80.694 123.073 82.5193 120.998L131.65 68.829V34H117.048Z" fill="black"/>
</g>
<path d="M229.454 124.85V52.5262V34H220.67V51.5762V93.4977L176.749 34H160V57.039V101.336V122.712H168.082V101.336V51.2199L223.247 124.85H229.454Z" fill="black"/>
<path d="M291.142 85.3034H269.943L280.367 59.0579L291.142 85.3034ZM326.045 124.85L287.863 34H282.007L244.996 124.85H255.068L267.015 93.3789H294.305L300.044 107.511C300.044 107.511 302.035 112.024 307.071 124.85H326.045Z" fill="black"/>
<path d="M406.5 104C406.5 104 405.042 102.523 404.339 101.811L374.824 71.29L386.771 60.3642L388.645 58.2266C390.636 56.4452 392.159 54.7826 393.681 53.3575L414.178 34H402.348L379.861 54.5451C379.509 54.9014 379.275 55.1389 379.158 55.4952L359.013 74.2589V58.1078V34H341.561V58.1078V100.148V124.85H359.013V100.148V85.6596L361.941 82.8095L384.311 105.373L388.762 109.767L402.583 124.85H426.71L406.5 104Z" fill="black"/>
<path d="M471.999 119.743C477.621 115.349 480.901 109.292 481.72 101.692C482.189 96.8229 481.603 92.4288 479.846 88.2723C478.207 84.3533 475.63 81.0281 472.351 78.5342C469.305 76.2778 464.503 73.1901 457.827 69.1523C451.034 65.1145 446.583 61.7893 444.475 59.1767C442.367 56.8015 441.547 54.1888 441.898 51.2199C442.133 48.8447 443.187 46.5883 445.295 44.6882C447.052 43.0256 449.863 42.0755 454.196 42.5506C458.53 43.0256 462.161 44.9257 465.089 48.4885C465.909 49.3198 466.494 50.2698 468.72 53.8326L475.513 48.1322C471.179 42.0755 468.017 38.9878 464.62 37.3252C461.458 35.7814 457.944 34.7125 454.314 34.3563C447.638 33.6437 441.664 35.1876 436.745 38.9878C431.709 42.9068 428.898 48.2509 428.195 54.7826C427.727 58.9391 428.312 63.0957 430.069 67.1334C431.709 71.0524 434.168 74.4964 437.565 77.2278C440.844 79.8405 445.529 82.8095 451.737 86.3722C458.647 90.2912 462.864 93.4977 464.972 96.1103C466.963 98.6042 467.783 101.454 467.431 104.898C467.08 108.224 465.557 111.074 462.512 113.568C459.701 115.943 455.836 117.13 450.917 116.418C443.421 115.23 439.205 112.143 431.357 100.623L425.501 107.036C431.592 117.13 442.367 123.781 451.034 124.731C459.233 125.681 466.26 124.137 471.999 119.743Z" fill="black"/>
<path d="M575 124.85V34H557.666V73.0713H517.844V34H500.51V124.85H517.844V81.2656H557.666V124.85H575Z" fill="black"/>
<defs>
<clipPath id="clip0_5_8887">
<rect width="104.65" height="91" fill="white" transform="translate(27 34)"/>
</clipPath>
</defs>
</svg>
